<?xml version="1.0" encoding="UTF-8"?>
<svg id="Layer_1" data-name="Layer 1" xmlns="http://www.w3.org/2000/svg" xmlns:xlink="http://www.w3.org/1999/xlink" viewBox="0 0 182 182">
  <defs>
    <style>
      .cls-1 {
        mask: url(#mask);
      }

      .cls-2 {
        fill-rule: evenodd;
      }

      .cls-3 {
        fill: #fff;
      }
    </style>
    <mask id="mask" x="-.02" y="0" width="181.9" height="182" maskUnits="userSpaceOnUse">
      <g id="mask0_652_44" data-name="mask0 652 44">
        <path class="cls-3" d="M181.75,0H-.02v181.76h181.76V0Z"/>
      </g>
    </mask>
  </defs>
  <g class="cls-1">
    <path class="cls-2" d="M157.31,19.45h-.03C143.42,6.03,125.36-.43,107.47.03c-.04-.01-.07-.01-.11,0-.6-.01-1.2-.02-1.81-.02H0v181.99h125.13c84.2-76.56,56.38-139.14,32.19-162.55ZM46.26,146.14l-21.27-10.27v-.04c-.12-7.32,5.73-13.33,13.05-13.44,7.32-.12,13.35,5.71,13.45,13.03.07,4.36-2,8.25-5.23,10.72ZM131.33,96.55c-31.22,32.17-69.69-5.32-128.52-26.77V2.83h86.8c-10.32,3.04-20.05,8.53-28.28,16.47-1.27,1.24-1.99,2.94-2.01,4.72,0,1.78.72,3.48,2,4.73l8.83,8.55c2.35,2.28,6.01,2.48,8.6.47,6.52-5.04,14.68-8.1,23.57-8.24,21.84-.34,39.83,17.07,40.16,38.9.17,10.91-4.1,20.86-11.15,28.12Z"/>
  </g>
</svg>